<svg width="160" height="83" viewBox="0 0 160 83" fill="none" xmlns="http://www.w3.org/2000/svg">
<rect width="160" height="83" fill="white"/>
<path d="M61 36C61 44.2843 54.2843 51 46 51C37.7157 51 31 44.2843 31 36C31 27.7157 37.7157 21 46 21V36H61Z" fill="#044DDB"/>
<path d="M61 36C61 36 54.2843 36 46 36C37.7157 36 31 36 31 36C31 27.7157 37.7157 21 46 21V36H61Z" fill="#043BA7"/>
<circle cx="46" cy="36" r="9" fill="white"/>
<circle cx="46" cy="36" r="6" fill="#044DDB"/>
<path d="M52 36C52 36 49.3137 36 46 36C42.6863 36 40 36 40 36C40 32.6863 42.6863 30 46 30C49.3137 30 52 32.6863 52 36Z" fill="#043BA7"/>
<path d="M71.1953 31.0291C71.1461 30.5921 70.9429 30.2536 70.5859 30.0135C70.2289 29.7704 69.7796 29.6488 69.2379 29.6488C68.8501 29.6488 68.5147 29.7103 68.2315 29.8335C67.9484 29.9535 67.7283 30.1197 67.5714 30.332C67.4175 30.5413 67.3406 30.7798 67.3406 31.0476C67.3406 31.2723 67.3929 31.4661 67.4975 31.6293C67.6052 31.7924 67.7453 31.9293 67.9176 32.0401C68.093 32.1478 68.2808 32.2386 68.4808 32.3125C68.6809 32.3833 68.8732 32.4418 69.0579 32.4879L69.9812 32.728C70.2828 32.8018 70.5921 32.9019 70.9091 33.0281C71.2261 33.1542 71.52 33.3204 71.7908 33.5266C72.0617 33.7328 72.2802 33.9883 72.4464 34.293C72.6156 34.5977 72.7003 34.9624 72.7003 35.3871C72.7003 35.9226 72.5618 36.3981 72.2848 36.8136C72.0109 37.229 71.6123 37.5568 71.0891 37.7969C70.569 38.0369 69.9396 38.157 69.201 38.157C68.4931 38.157 67.8807 38.0446 67.3636 37.82C66.8466 37.5953 66.4419 37.2768 66.1495 36.8643C65.8571 36.4489 65.6955 35.9564 65.6648 35.3871H67.0959C67.1236 35.7287 67.2344 36.0134 67.4283 36.2411C67.6252 36.4658 67.8761 36.6335 68.1808 36.7443C68.4885 36.852 68.8255 36.9059 69.1918 36.9059C69.5949 36.9059 69.9535 36.8428 70.2674 36.7166C70.5844 36.5874 70.8337 36.4089 71.0153 36.1811C71.1969 35.9503 71.2876 35.681 71.2876 35.3732C71.2876 35.0932 71.2076 34.8639 71.0476 34.6854C70.8906 34.5069 70.6767 34.3591 70.4059 34.2422C70.1381 34.1252 69.835 34.0221 69.4964 33.9329L68.3793 33.6282C67.6222 33.422 67.022 33.1188 66.5788 32.7188C66.1387 32.3187 65.9187 31.7893 65.9187 31.1307C65.9187 30.5859 66.0664 30.1104 66.3619 29.7042C66.6573 29.2979 67.0574 28.9825 67.5621 28.7578C68.0669 28.5301 68.6362 28.4162 69.2702 28.4162C69.9104 28.4162 70.4751 28.5285 70.9645 28.7532C71.4569 28.9779 71.8447 29.2872 72.1278 29.6811C72.411 30.072 72.5587 30.5213 72.571 31.0291H71.1953ZM75.5637 35.5948L75.5544 33.9098H75.7945L78.6198 30.9091H80.2725L77.0502 34.3253H76.8332L75.5637 35.5948ZM74.2941 38V28.5455H75.6744V38H74.2941ZM78.7721 38L76.233 34.63L77.184 33.6651L80.4664 38H78.7721ZM81.5305 38V30.9091H82.9108V38H81.5305ZM82.2275 29.815C81.9875 29.815 81.7813 29.735 81.6089 29.5749C81.4397 29.4118 81.355 29.2179 81.355 28.9933C81.355 28.7655 81.4397 28.5716 81.6089 28.4116C81.7813 28.2485 81.9875 28.1669 82.2275 28.1669C82.4676 28.1669 82.6723 28.2485 82.8415 28.4116C83.0139 28.5716 83.1001 28.7655 83.1001 28.9933C83.1001 29.2179 83.0139 29.4118 82.8415 29.5749C82.6723 29.735 82.4676 29.815 82.2275 29.815ZM86.1481 28.5455V38H84.7678V28.5455H86.1481ZM89.3854 28.5455V38H88.0051V28.5455H89.3854ZM97.7389 38.1431C97.0403 38.1431 96.4386 37.9938 95.9339 37.6953C95.4322 37.3937 95.0444 36.9705 94.7705 36.4258C94.4997 35.878 94.3643 35.2363 94.3643 34.5007C94.3643 33.7744 94.4997 33.1342 94.7705 32.5803C95.0444 32.0263 95.426 31.5939 95.9154 31.283C96.4078 30.9722 96.9833 30.8168 97.642 30.8168C98.0421 30.8168 98.4298 30.8829 98.8053 31.0153C99.1808 31.1476 99.5178 31.3554 99.8163 31.6385C100.115 31.9216 100.35 32.2894 100.523 32.7418C100.695 33.1912 100.781 33.7375 100.781 34.3807V34.87H95.1444V33.8359H99.4285C99.4285 33.4728 99.3547 33.1512 99.2069 32.8711C99.0592 32.5879 98.8515 32.3648 98.5837 32.2017C98.319 32.0386 98.0082 31.957 97.6512 31.957C97.2634 31.957 96.9249 32.0524 96.6356 32.2433C96.3493 32.431 96.1278 32.6772 95.9708 32.9819C95.8169 33.2835 95.74 33.6113 95.74 33.9652V34.7731C95.74 35.247 95.8231 35.6502 95.9893 35.9826C96.1585 36.315 96.394 36.5689 96.6956 36.7443C96.9972 36.9167 97.3496 37.0028 97.7528 37.0028C98.0144 37.0028 98.2529 36.9659 98.4683 36.892C98.6837 36.8151 98.8699 36.7012 99.0269 36.5504C99.1839 36.3996 99.3039 36.2134 99.387 35.9918L100.693 36.2273C100.589 36.612 100.401 36.949 100.13 37.2383C99.8625 37.5245 99.5255 37.7476 99.1192 37.9077C98.7161 38.0646 98.2559 38.1431 97.7389 38.1431ZM104.967 38.1385C104.395 38.1385 103.884 37.9923 103.434 37.6999C102.988 37.4045 102.637 36.9844 102.382 36.4396C102.13 35.8918 102.003 35.2347 102.003 34.4684C102.003 33.7021 102.131 33.0465 102.387 32.5018C102.645 31.957 102.999 31.54 103.448 31.2507C103.898 30.9614 104.407 30.8168 104.976 30.8168C105.416 30.8168 105.77 30.8906 106.038 31.0384C106.309 31.183 106.518 31.3523 106.666 31.5462C106.817 31.7401 106.934 31.9109 107.017 32.0586H107.1V28.5455H108.48V38H107.132V36.8967H107.017C106.934 37.0475 106.814 37.2198 106.657 37.4137C106.503 37.6076 106.291 37.7769 106.02 37.9215C105.749 38.0662 105.398 38.1385 104.967 38.1385ZM105.272 36.9613C105.669 36.9613 106.004 36.8567 106.278 36.6474C106.555 36.435 106.765 36.1411 106.906 35.7656C107.051 35.3902 107.123 34.9531 107.123 34.4545C107.123 33.9621 107.052 33.5312 106.911 33.1619C106.769 32.7926 106.561 32.5049 106.287 32.2987C106.014 32.0924 105.675 31.9893 105.272 31.9893C104.856 31.9893 104.51 32.0971 104.233 32.3125C103.956 32.5279 103.747 32.8219 103.605 33.1942C103.467 33.5666 103.398 33.9867 103.398 34.4545C103.398 34.9285 103.468 35.3548 103.61 35.7333C103.751 36.1119 103.961 36.4119 104.238 36.6335C104.518 36.852 104.863 36.9613 105.272 36.9613ZM113.423 40.8068C112.86 40.8068 112.375 40.733 111.969 40.5852C111.566 40.4375 111.237 40.2421 110.981 39.9989C110.726 39.7558 110.535 39.4896 110.409 39.2003L111.595 38.7109C111.678 38.8464 111.789 38.9895 111.928 39.1403C112.069 39.2942 112.26 39.425 112.5 39.5327C112.743 39.6404 113.056 39.6942 113.437 39.6942C113.96 39.6942 114.393 39.5665 114.734 39.3111C115.076 39.0587 115.247 38.6555 115.247 38.1016V36.7074H115.159C115.076 36.8582 114.956 37.0259 114.799 37.2106C114.645 37.3952 114.433 37.5553 114.162 37.6907C113.891 37.8261 113.539 37.8938 113.105 37.8938C112.545 37.8938 112.04 37.763 111.591 37.5014C111.144 37.2367 110.79 36.8474 110.529 36.3335C110.27 35.8164 110.141 35.1809 110.141 34.4268C110.141 33.6728 110.269 33.0265 110.524 32.4879C110.783 31.9493 111.137 31.5369 111.586 31.2507C112.035 30.9614 112.545 30.8168 113.114 30.8168C113.554 30.8168 113.91 30.8906 114.18 31.0384C114.451 31.183 114.662 31.3523 114.813 31.5462C114.967 31.7401 115.085 31.9109 115.168 32.0586H115.27V30.9091H116.623V38.157C116.623 38.7663 116.481 39.2665 116.198 39.6573C115.915 40.0482 115.532 40.3375 115.048 40.5252C114.568 40.7129 114.027 40.8068 113.423 40.8068ZM113.41 36.7489C113.807 36.7489 114.142 36.6566 114.416 36.4719C114.693 36.2842 114.902 36.0165 115.044 35.6687C115.188 35.3178 115.261 34.8977 115.261 34.4084C115.261 33.9313 115.19 33.5112 115.048 33.1481C114.907 32.7849 114.699 32.5018 114.425 32.2987C114.151 32.0924 113.813 31.9893 113.41 31.9893C112.994 31.9893 112.648 32.0971 112.371 32.3125C112.094 32.5249 111.885 32.8142 111.743 33.1804C111.604 33.5466 111.535 33.956 111.535 34.4084C111.535 34.8731 111.606 35.2809 111.748 35.6317C111.889 35.9826 112.098 36.2565 112.375 36.4535C112.656 36.6504 113 36.7489 113.41 36.7489ZM121.53 38.1431C120.831 38.1431 120.23 37.9938 119.725 37.6953C119.223 37.3937 118.835 36.9705 118.562 36.4258C118.291 35.878 118.155 35.2363 118.155 34.5007C118.155 33.7744 118.291 33.1342 118.562 32.5803C118.835 32.0263 119.217 31.5939 119.706 31.283C120.199 30.9722 120.774 30.8168 121.433 30.8168C121.833 30.8168 122.221 30.8829 122.596 31.0153C122.972 31.1476 123.309 31.3554 123.607 31.6385C123.906 31.9216 124.141 32.2894 124.314 32.7418C124.486 33.1912 124.572 33.7375 124.572 34.3807V34.87H118.935V33.8359H123.22C123.22 33.4728 123.146 33.1512 122.998 32.8711C122.85 32.5879 122.642 32.3648 122.375 32.2017C122.11 32.0386 121.799 31.957 121.442 31.957C121.054 31.957 120.716 32.0524 120.427 32.2433C120.14 32.431 119.919 32.6772 119.762 32.9819C119.608 33.2835 119.531 33.6113 119.531 33.9652V34.7731C119.531 35.247 119.614 35.6502 119.78 35.9826C119.95 36.315 120.185 36.5689 120.487 36.7443C120.788 36.9167 121.141 37.0028 121.544 37.0028C121.805 37.0028 122.044 36.9659 122.259 36.892C122.475 36.8151 122.661 36.7012 122.818 36.5504C122.975 36.3996 123.095 36.2134 123.178 35.9918L124.484 36.2273C124.38 36.612 124.192 36.949 123.921 37.2383C123.653 37.5245 123.316 37.7476 122.91 37.9077C122.507 38.0646 122.047 38.1431 121.53 38.1431Z" fill="#043BA7"/>
</svg>
